PathFileType	4	(X / Y / Z)	Demo_140508_11_September_2019	Demo_140508_11_September_2019.trc
DataRate	CameraRate	NumFrames	NumMarkers	Units	OrigDataRate	OrigDataStartFrame	OrigNumFrames
50	50	21	25	m	50	1394	3585
Frame#	Time		SpineBase		SpineMid		Neck		Head		ShoulderLeft		ElbowLeft		WristLeft		HandLeft		ShoulderRight		ElbowRight		WristRight		HandRight		HipLeft		KneeLeft		AnkleLeft		FootLeft		HipRight		KneeRight		AnkleRight		FootRight		SpineShoulder		HandTipLeft		LeftThumb		HandTipRight		ThumbRight		
X1	Y1	Z1	X2	Y2	Z2	X3	Y3	Z3	X4	Y4	Z4	X5	Y5	Z5	X6	Y6	Z6	X7	Y7	Z7	X8	Y8	Z8	X9	Y9	Z9	X10	Y10	Z10	X11	Y11	Z11	X12	Y12	Z12	X13	Y13	Z13	X14	Y14	Z14	X15	Y15	Z15	X16	Y16	Z16	X17	Y17	Z17	X18	Y18	Z18	X19	Y19	Z19	X20	Y20	Z20	X21	Y21	Z21	X22	Y22	Z22	X23	Y23	Z23	X24	Y24	Z24	X25	Y25	Z25	
1345	42.017	0.093	0.772	1.780	0.104	1.065	1.755	0.107	1.348	1.713	0.116	1.488	1.683	-0.044	1.241	1.706	-0.105	0.973	1.728	-0.189	0.766	1.693	-0.185	0.773	1.697	0.321	1.257	1.711	0.525	1.409	1.676	0.664	1.570	1.647	0.702	1.639	1.644	0.021	0.782	1.745	-0.046	0.498	1.784	-0.069	0.187	1.894	-0.070	0.150	1.789	0.161	0.771	1.747	0.153	0.515	1.797	0.115	0.232	1.910	0.112	0.185	1.792	0.106	1.279	1.726	-0.188	0.695	1.687	-0.206	0.778	1.708	0.774	1.724	1.649	0.715	1.693	1.590
1346	42.034	0.093	0.772	1.780	0.104	1.065	1.755	0.107	1.348	1.713	0.116	1.488	1.683	-0.044	1.241	1.706	-0.105	0.973	1.728	-0.189	0.766	1.693	-0.185	0.773	1.697	0.321	1.257	1.711	0.525	1.409	1.676	0.664	1.570	1.647	0.702	1.639	1.644	0.021	0.782	1.745	-0.046	0.498	1.784	-0.069	0.187	1.894	-0.070	0.150	1.789	0.161	0.771	1.747	0.153	0.515	1.797	0.115	0.232	1.910	0.112	0.185	1.792	0.106	1.279	1.726	-0.188	0.695	1.687	-0.206	0.778	1.708	0.774	1.724	1.649	0.715	1.693	1.590
1347	42.051	0.093	0.775	1.779	0.104	1.065	1.754	0.107	1.348	1.713	0.116	1.488	1.682	-0.044	1.241	1.705	-0.106	0.973	1.728	-0.189	0.767	1.693	-0.179	0.740	1.693	0.322	1.268	1.710	0.511	1.424	1.676	0.642	1.587	1.650	0.696	1.653	1.652	0.021	0.784	1.743	-0.046	0.499	1.783	-0.069	0.193	1.892	-0.069	0.153	1.781	0.161	0.775	1.746	0.153	0.516	1.796	0.115	0.233	1.910	0.112	0.185	1.791	0.107	1.279	1.726	-0.184	0.690	1.688	-0.201	0.758	1.697	0.763	1.741	1.657	0.708	1.709	1.597
1348	42.067	0.093	0.775	1.779	0.104	1.065	1.754	0.107	1.348	1.713	0.116	1.488	1.682	-0.044	1.241	1.705	-0.106	0.973	1.728	-0.189	0.767	1.693	-0.179	0.740	1.693	0.322	1.268	1.710	0.511	1.424	1.676	0.642	1.587	1.650	0.696	1.653	1.652	0.021	0.784	1.743	-0.046	0.499	1.783	-0.069	0.193	1.892	-0.069	0.153	1.781	0.161	0.775	1.746	0.153	0.516	1.796	0.115	0.233	1.910	0.112	0.185	1.791	0.107	1.279	1.726	-0.184	0.690	1.688	-0.201	0.758	1.697	0.763	1.741	1.657	0.708	1.709	1.597
1349	42.084	0.093	0.777	1.778	0.104	1.065	1.754	0.107	1.348	1.712	0.116	1.488	1.682	-0.043	1.241	1.705	-0.106	0.974	1.728	-0.190	0.767	1.693	-0.175	0.738	1.692	0.320	1.278	1.709	0.499	1.428	1.677	0.631	1.586	1.654	0.698	1.644	1.660	0.021	0.786	1.742	-0.047	0.499	1.783	-0.069	0.200	1.889	-0.067	0.158	1.773	0.161	0.778	1.746	0.152	0.516	1.795	0.115	0.234	1.910	0.113	0.185	1.791	0.107	1.279	1.725	-0.182	0.689	1.687	-0.200	0.755	1.694	0.756	1.732	1.666	0.709	1.698	1.609
1350	42.101	0.093	0.777	1.778	0.104	1.065	1.754	0.107	1.348	1.712	0.116	1.488	1.682	-0.043	1.241	1.705	-0.106	0.974	1.728	-0.190	0.767	1.693	-0.175	0.738	1.692	0.320	1.278	1.709	0.499	1.428	1.677	0.631	1.586	1.654	0.698	1.644	1.660	0.021	0.786	1.742	-0.047	0.499	1.783	-0.069	0.200	1.889	-0.067	0.158	1.773	0.161	0.778	1.746	0.152	0.516	1.795	0.115	0.234	1.910	0.113	0.185	1.791	0.107	1.279	1.725	-0.182	0.689	1.687	-0.200	0.755	1.694	0.756	1.732	1.666	0.709	1.698	1.609
1351	42.117	0.093	0.779	1.777	0.103	1.066	1.753	0.107	1.348	1.712	0.117	1.488	1.682	-0.043	1.240	1.705	-0.106	0.974	1.728	-0.189	0.768	1.693	-0.168	0.725	1.691	0.319	1.283	1.709	0.491	1.424	1.679	0.624	1.577	1.660	0.690	1.609	1.665	0.021	0.787	1.741	-0.047	0.500	1.783	-0.070	0.178	1.897	-0.071	0.145	1.805	0.160	0.780	1.746	0.151	0.517	1.794	0.115	0.234	1.910	0.113	0.185	1.791	0.107	1.279	1.725	-0.173	0.682	1.688	-0.196	0.747	1.692	0.756	1.678	1.669	0.653	1.646	1.636
1352	42.134	0.093	0.779	1.777	0.103	1.066	1.753	0.107	1.348	1.712	0.117	1.488	1.682	-0.043	1.240	1.705	-0.106	0.974	1.728	-0.189	0.768	1.693	-0.168	0.725	1.691	0.319	1.283	1.709	0.491	1.424	1.679	0.624	1.577	1.660	0.690	1.609	1.665	0.021	0.787	1.741	-0.047	0.500	1.783	-0.070	0.178	1.897	-0.071	0.145	1.805	0.160	0.780	1.746	0.151	0.517	1.794	0.115	0.234	1.910	0.113	0.185	1.791	0.107	1.279	1.725	-0.173	0.682	1.688	-0.196	0.747	1.692	0.756	1.678	1.669	0.653	1.646	1.636
1353	42.151	0.093	0.780	1.777	0.103	1.066	1.753	0.107	1.348	1.712	0.117	1.488	1.681	-0.043	1.240	1.704	-0.106	0.974	1.728	-0.187	0.768	1.693	-0.163	0.717	1.691	0.317	1.286	1.708	0.488	1.415	1.681	0.642	1.545	1.667	0.701	1.562	1.673	0.022	0.788	1.741	-0.047	0.501	1.782	-0.069	0.189	1.892	-0.068	0.155	1.794	0.161	0.782	1.746	0.150	0.517	1.794	0.115	0.234	1.910	0.113	0.186	1.790	0.107	1.279	1.725	-0.166	0.678	1.689	-0.191	0.737	1.691	0.780	1.598	1.681	0.642	1.577	1.658
1354	42.168	0.093	0.780	1.777	0.103	1.066	1.753	0.107	1.348	1.712	0.117	1.488	1.681	-0.043	1.240	1.704	-0.106	0.974	1.728	-0.187	0.768	1.693	-0.163	0.717	1.691	0.317	1.286	1.708	0.488	1.415	1.681	0.642	1.545	1.667	0.701	1.562	1.673	0.022	0.788	1.741	-0.047	0.501	1.782	-0.069	0.189	1.892	-0.068	0.155	1.794	0.161	0.782	1.746	0.150	0.517	1.794	0.115	0.234	1.910	0.113	0.186	1.790	0.107	1.279	1.725	-0.166	0.678	1.689	-0.191	0.737	1.691	0.780	1.598	1.681	0.642	1.577	1.658
1355	42.184	0.093	0.782	1.777	0.103	1.067	1.752	0.107	1.348	1.712	0.117	1.488	1.681	-0.044	1.240	1.704	-0.106	0.974	1.728	-0.184	0.767	1.693	-0.158	0.712	1.693	0.316	1.288	1.708	0.497	1.383	1.687	0.680	1.487	1.678	0.701	1.480	1.679	0.022	0.789	1.740	-0.047	0.501	1.782	-0.068	0.199	1.888	-0.066	0.163	1.784	0.161	0.784	1.747	0.150	0.517	1.794	0.115	0.234	1.910	0.113	0.185	1.791	0.107	1.279	1.725	-0.158	0.672	1.690	-0.183	0.727	1.688	0.792	1.497	1.690	0.646	1.504	1.663
1356	42.201	0.093	0.782	1.777	0.103	1.067	1.752	0.107	1.348	1.712	0.117	1.488	1.681	-0.044	1.240	1.704	-0.106	0.974	1.728	-0.184	0.767	1.693	-0.158	0.712	1.693	0.316	1.288	1.708	0.497	1.383	1.687	0.680	1.487	1.678	0.701	1.480	1.679	0.022	0.789	1.740	-0.047	0.501	1.782	-0.068	0.199	1.888	-0.066	0.163	1.784	0.161	0.784	1.747	0.150	0.517	1.794	0.115	0.234	1.910	0.113	0.185	1.791	0.107	1.279	1.725	-0.158	0.672	1.690	-0.183	0.727	1.688	0.792	1.497	1.690	0.646	1.504	1.663
1357	42.218	0.094	0.783	1.777	0.103	1.067	1.752	0.107	1.348	1.711	0.117	1.488	1.680	-0.044	1.240	1.704	-0.106	0.974	1.728	-0.181	0.766	1.694	-0.154	0.708	1.694	0.314	1.287	1.708	0.525	1.335	1.695	0.760	1.409	1.687	0.804	1.397	1.697	0.022	0.790	1.740	-0.047	0.502	1.782	-0.068	0.207	1.886	-0.064	0.168	1.777	0.161	0.786	1.747	0.149	0.516	1.794	0.115	0.234	1.910	0.113	0.185	1.791	0.107	1.279	1.724	-0.152	0.668	1.693	-0.180	0.723	1.689	0.851	1.394	1.713	0.758	1.405	1.674
1358	42.234	0.094	0.783	1.777	0.103	1.067	1.752	0.107	1.348	1.711	0.117	1.488	1.680	-0.044	1.240	1.704	-0.106	0.974	1.728	-0.181	0.766	1.694	-0.154	0.708	1.694	0.314	1.287	1.708	0.525	1.335	1.695	0.760	1.409	1.687	0.804	1.397	1.697	0.022	0.790	1.740	-0.047	0.502	1.782	-0.068	0.207	1.886	-0.064	0.168	1.777	0.161	0.786	1.747	0.149	0.516	1.794	0.115	0.234	1.910	0.113	0.185	1.791	0.107	1.279	1.724	-0.152	0.668	1.693	-0.180	0.723	1.689	0.851	1.394	1.713	0.758	1.405	1.674
1359	42.251	0.094	0.784	1.778	0.103	1.068	1.752	0.107	1.348	1.711	0.117	1.488	1.680	-0.044	1.240	1.703	-0.105	0.974	1.728	-0.178	0.765	1.694	-0.150	0.705	1.696	0.312	1.285	1.707	0.538	1.279	1.705	0.792	1.307	1.695	0.840	1.289	1.706	0.023	0.790	1.740	-0.047	0.502	1.782	-0.067	0.212	1.883	-0.063	0.173	1.771	0.161	0.786	1.748	0.148	0.516	1.794	0.115	0.234	1.911	0.113	0.185	1.791	0.106	1.279	1.724	-0.146	0.664	1.696	-0.177	0.720	1.694	0.889	1.277	1.728	0.833	1.278	1.681
1360	42.268	0.094	0.784	1.778	0.103	1.068	1.752	0.107	1.348	1.711	0.117	1.488	1.680	-0.044	1.240	1.703	-0.105	0.974	1.728	-0.178	0.765	1.694	-0.150	0.705	1.696	0.312	1.285	1.707	0.538	1.279	1.705	0.792	1.307	1.695	0.840	1.289	1.706	0.023	0.790	1.740	-0.047	0.502	1.782	-0.067	0.212	1.883	-0.063	0.173	1.771	0.161	0.786	1.748	0.148	0.516	1.794	0.115	0.234	1.911	0.113	0.185	1.791	0.106	1.279	1.724	-0.146	0.664	1.696	-0.177	0.720	1.694	0.889	1.277	1.728	0.833	1.278	1.681
1361	42.284	0.094	0.784	1.778	0.103	1.068	1.752	0.107	1.348	1.711	0.117	1.488	1.680	-0.044	1.240	1.703	-0.105	0.974	1.728	-0.178	0.765	1.694	-0.150	0.705	1.696	0.312	1.285	1.707	0.538	1.279	1.705	0.792	1.307	1.695	0.840	1.289	1.706	0.023	0.790	1.740	-0.047	0.502	1.782	-0.067	0.212	1.883	-0.063	0.173	1.771	0.161	0.786	1.748	0.148	0.516	1.794	0.115	0.234	1.911	0.113	0.185	1.791	0.106	1.279	1.724	-0.146	0.664	1.696	-0.177	0.720	1.694	0.889	1.277	1.728	0.833	1.278	1.681
1362	42.301	0.094	0.784	1.778	0.103	1.068	1.752	0.107	1.348	1.711	0.117	1.488	1.680	-0.044	1.240	1.703	-0.105	0.974	1.728	-0.178	0.765	1.694	-0.150	0.705	1.696	0.312	1.285	1.707	0.538	1.279	1.705	0.792	1.307	1.695	0.840	1.289	1.706	0.023	0.790	1.740	-0.047	0.502	1.782	-0.067	0.212	1.883	-0.063	0.173	1.771	0.161	0.786	1.748	0.148	0.516	1.794	0.115	0.234	1.911	0.113	0.185	1.791	0.106	1.279	1.724	-0.146	0.664	1.696	-0.177	0.720	1.694	0.889	1.277	1.728	0.833	1.278	1.681
1363	42.318	0.094	0.783	1.778	0.103	1.068	1.752	0.107	1.348	1.710	0.117	1.488	1.679	-0.045	1.240	1.703	-0.104	0.974	1.727	-0.175	0.763	1.695	-0.149	0.703	1.697	0.295	1.256	1.704	0.468	1.101	1.724	0.683	1.031	1.729	0.720	0.986	1.732	0.023	0.790	1.740	-0.047	0.502	1.782	-0.067	0.216	1.882	-0.063	0.176	1.767	0.161	0.786	1.749	0.147	0.514	1.795	0.115	0.234	1.911	0.114	0.184	1.791	0.106	1.279	1.723	-0.143	0.662	1.698	-0.174	0.715	1.693	0.800	0.956	1.756	0.753	0.964	1.704
1364	42.335	0.094	0.783	1.778	0.103	1.068	1.752	0.107	1.348	1.710	0.117	1.488	1.679	-0.045	1.240	1.703	-0.104	0.974	1.727	-0.175	0.763	1.695	-0.149	0.703	1.697	0.295	1.256	1.704	0.468	1.101	1.724	0.683	1.031	1.729	0.720	0.986	1.732	0.023	0.790	1.740	-0.047	0.502	1.782	-0.067	0.216	1.882	-0.063	0.176	1.767	0.161	0.786	1.749	0.147	0.514	1.795	0.115	0.234	1.911	0.114	0.184	1.791	0.106	1.279	1.723	-0.143	0.662	1.698	-0.174	0.715	1.693	0.800	0.956	1.756	0.753	0.964	1.704
1365	42.351	0.094	0.783	1.778	0.103	1.068	1.752	0.107	1.348	1.710	0.117	1.488	1.679	-0.045	1.240	1.703	-0.104	0.974	1.727	-0.175	0.763	1.695	-0.149	0.703	1.697	0.295	1.256	1.704	0.468	1.101	1.724	0.683	1.031	1.729	0.720	0.986	1.732	0.023	0.790	1.740	-0.047	0.502	1.782	-0.067	0.216	1.882	-0.063	0.176	1.767	0.161	0.786	1.749	0.147	0.514	1.795	0.115	0.234	1.911	0.114	0.184	1.791	0.106	1.279	1.723	-0.143	0.662	1.698	-0.174	0.715	1.693	0.800	0.956	1.756	0.753	0.964	1.704
